<svg width="36" height="36" viewBox="0 0 36 36" fill="none" xmlns="http://www.w3.org/2000/svg">
<path d="M16.0919 6.56546C16.7547 6.02514 17.733 6.06346 18.3507 6.68118C18.9684 7.2989 19.0067 8.27717 18.4664 8.93997L18.3507 9.06888L11.1071 16.3125H28.9694C29.9013 16.3125 30.6569 17.068 30.6569 18C30.6569 18.932 29.9013 19.6875 28.9694 19.6875H11.1071L18.3507 26.9312L18.4664 27.0601C19.0067 27.7229 18.9684 28.7012 18.3507 29.3189C17.733 29.9366 16.7547 29.9749 16.0919 29.4346L15.963 29.3189L5.83801 19.1939C5.179 18.5349 5.179 17.4652 5.83801 16.8062L15.963 6.68118L16.0919 6.56546Z" fill="black"/>
</svg>
