<svg width="36" height="36" viewBox="0 0 36 36" fill="none" xmlns="http://www.w3.org/2000/svg">
<path d="M26.8277 2.25329C25.553 2.55423 17.9283 4.4379 15.859 4.93852C15.8281 4.94565 15.8005 4.963 15.7808 4.98776C15.761 5.01252 15.7501 5.04324 15.75 5.07493V24.8412C15.75 24.8701 15.7411 24.8983 15.7245 24.9219C15.7079 24.9456 15.6844 24.9635 15.6572 24.9734L12.7969 26.007C10.7002 26.7565 9 27.3387 9 30.1596C9 32.4427 10.6545 33.477 11.6684 33.6752C12.0168 33.7329 12.3699 33.7583 12.723 33.7512C13.3481 33.7512 14.9027 33.4988 16.0643 32.7499C18 31.4998 18 31.4998 18 29.2449V11.8938C17.9999 11.8627 18.0101 11.8324 18.0291 11.8077C18.0481 11.7831 18.0747 11.7654 18.1048 11.7574L26.8938 9.43712C26.9239 9.42918 26.9505 9.41148 26.9695 9.3868C26.9885 9.36211 26.9987 9.33184 26.9986 9.30071V2.3904C26.9986 2.36938 26.9938 2.34864 26.9847 2.3297C26.9756 2.31076 26.9624 2.2941 26.946 2.28095C26.9296 2.26779 26.9105 2.25848 26.89 2.2537C26.8695 2.24891 26.8483 2.24877 26.8277 2.25329Z" fill="#369799"/>
</svg>
