<svg width="36" height="36" viewBox="0 0 36 36" fill="none" xmlns="http://www.w3.org/2000/svg">
<path d="M29.6605 2.62743C29.4379 2.45591 29.1785 2.33833 28.9028 2.28392C28.6271 2.22951 28.3425 2.23975 28.0714 2.31383L14.0568 6.08117C13.5705 6.21178 13.1414 6.50029 12.8369 6.90134C12.5325 7.30238 12.37 7.79323 12.3749 8.29672V24.1873C12.3749 24.6613 12.0683 25.0705 11.5937 25.2301L11.5853 25.2336L7.92903 26.4992C6.53051 26.9668 5.62489 28.2655 5.62489 29.806C5.61976 30.4326 5.7655 31.0512 6.04979 31.6097C6.33407 32.1681 6.74856 32.6499 7.25825 33.0144C7.91459 33.4912 8.70473 33.7486 9.51598 33.7498C9.9404 33.7491 10.3619 33.6795 10.764 33.5438L10.7907 33.5347L12.3264 32.9764C12.9925 32.754 13.5723 32.3287 13.9845 31.7602C14.3967 31.1916 14.6207 30.5083 14.6249 29.806V14.8998C14.6249 14.3872 14.9603 13.9709 15.4799 13.8402L15.4947 13.8359L27.7733 10.5566C27.8148 10.5459 27.8582 10.5448 27.9002 10.5534C27.9421 10.562 27.9816 10.5801 28.0155 10.6063C28.0494 10.6324 28.0769 10.666 28.0959 10.7045C28.1148 10.7429 28.1247 10.7851 28.1249 10.828V20.8074C28.1249 21.282 27.8261 21.6779 27.3437 21.8396L27.3261 21.8459L23.7479 23.1193C23.0521 23.3482 22.4471 23.7925 22.0205 24.388C21.5939 24.9835 21.3678 25.6992 21.3749 26.4317C21.3686 27.0602 21.5138 27.6809 21.7981 28.2415C22.0824 28.802 22.4975 29.2858 23.0082 29.652C23.5083 30.0136 24.0882 30.2493 24.6987 30.3392C25.3091 30.4292 25.9323 30.3707 26.5154 30.1688L26.5407 30.1604L28.0764 29.6014C28.7424 29.3792 29.3222 28.954 29.7345 28.3855C30.1467 27.8171 30.3706 27.1339 30.3749 26.4317V4.07797C30.3764 3.79736 30.3127 3.52023 30.1887 3.26849C30.0647 3.01674 29.8839 2.79727 29.6605 2.62743Z" fill="#369799"/>
</svg>
